<svg width="23" height="12" viewBox="0 0 23 12" fill="none" xmlns="http://www.w3.org/2000/svg">
<path d="M4.56 2.88C5.232 2.88 5.82933 3.024 6.352 3.312C6.88533 3.6 7.30133 4.02667 7.6 4.592C7.90933 5.15733 8.064 5.84 8.064 6.64V11.84H6.256V6.912C6.256 6.12267 6.05867 5.52 5.664 5.104C5.26933 4.67733 4.73067 4.464 4.048 4.464C3.36533 4.464 2.82133 4.67733 2.416 5.104C2.02133 5.52 1.824 6.12267 1.824 6.912V11.84H0V0H1.824V4.048C2.13333 3.67467 2.52267 3.38667 2.992 3.184C3.472 2.98133 3.99467 2.88 4.56 2.88Z" fill="#43403B"/>
<path d="M14.9506 2.88C15.6226 2.88 16.22 3.024 16.7426 3.312C17.276 3.6 17.692 4.02667 17.9906 4.592C18.3 5.15733 18.4546 5.84 18.4546 6.64V11.84H16.6466V6.912C16.6466 6.12267 16.4493 5.52 16.0546 5.104C15.66 4.67733 15.1213 4.464 14.4386 4.464C13.756 4.464 13.212 4.67733 12.8066 5.104C12.412 5.52 12.2146 6.12267 12.2146 6.912V11.84H10.3906V0H12.2146V4.048C12.524 3.67467 12.9133 3.38667 13.3826 3.184C13.8626 2.98133 14.3853 2.88 14.9506 2.88Z" fill="#43403B"/>
<path d="M21.5173 11.952C21.1866 11.952 20.9092 11.84 20.6852 11.616C20.4612 11.392 20.3493 11.1147 20.3493 10.784C20.3493 10.4533 20.4612 10.176 20.6852 9.952C20.9092 9.728 21.1866 9.616 21.5173 9.616C21.8372 9.616 22.1092 9.728 22.3333 9.952C22.5573 10.176 22.6693 10.4533 22.6693 10.784C22.6693 11.1147 22.5573 11.392 22.3333 11.616C22.1092 11.84 21.8372 11.952 21.5173 11.952Z" fill="#12B379"/>
</svg>
